<svg width="172" height="130" viewBox="0 0 172 130" xmlns="http://www.w3.org/2000/svg"><title>Overlay Player Icon</title><path d="M0 9.998C0 4.476 4.468 0 9.99 0h152.02c5.517 0 9.99 4.475 9.99 9.998v110.004c0 5.522-4.468 9.998-9.99 9.998H9.99C4.474 130 0 125.525 0 120.002V9.998zm10 18.005A4 4 0 0 1 14.007 24h143.986A4.003 4.003 0 0 1 162 28.003v87.994a4 4 0 0 1-4.007 4.003H14.007A4.003 4.003 0 0 1 10 115.997V28.003zm8 32.002A4.007 4.007 0 0 1 22 56h64c2.21 0 4 1.8 4 4.005v47.99A4.007 4.007 0 0 1 86 112H22c-2.21 0-4-1.8-4-4.005v-47.99zM42 73c0-.553.403-.808.905-.567l23.19 11.132c.5.24.502.627 0 .868l-23.19 11.132c-.5.24-.905-.013-.905-.567V73.001z" fill="#FFF" fill-rule="evenodd"/></svg>
