<svg width="96" height="74" viewBox="0 0 96 74" xmlns="http://www.w3.org/2000/svg"><title>Min Vid Dark Copy</title><g fill="#FFF" fill-rule="evenodd"><path d="M0 8.007C0 3.585 3.588 0 8 0h80c4.419 0 8 3.582 8 8.007v57.986C96 70.415 92.412 74 88 74H8c-4.419 0-8-3.582-8-8.007V8.007zM7 26A5 5 0 0 1 12.006 21h71.988A5 5 0 0 1 89 26v36a5 5 0 0 1-5.006 5H12.006A5 5 0 0 1 7 62V26z"/><path d="M12 37.997A3.993 3.993 0 0 1 15.998 34h27.004A4 4 0 0 1 47 37.997v20.006A3.993 3.993 0 0 1 43.002 62H15.998A4 4 0 0 1 12 58.003V37.997zm11.5 4.37c0-.309.222-.45.499-.316l12.794 6.207c.275.134.277.35 0 .484L23.999 54.95c-.276.133-.499-.008-.499-.316V42.367z"/></g></svg>