<?xml version="1.0" encoding="UTF-8" standalone="no"?>
<svg width="18px" height="18px" viewBox="0 0 18 18" version="1.1" xmlns="http://www.w3.org/2000/svg" xmlns:xlink="http://www.w3.org/1999/xlink">
    <!-- Generator: Sketch 3.8.2 (29753) - http://www.bohemiancoding.com/sketch -->
    <title>unmute</title>
    <desc>Created with Sketch.</desc>
    <defs></defs>
    <g id="Page-1" stroke="none" stroke-width="1" fill="none" fill-rule="evenodd">
        <g id="unmute" fill="#FFFFFF">
            <path d="M2.30769231,5.82567749 C1.03846154,5.82567749 0,6.80067749 0,7.99234416 L0,10.1590108 C0,11.3506775 1.03846154,12.3256775 2.30769231,12.3256775 L3.69230769,12.3256775 L8,15.5756775 L8,2.57567749 L3.69230769,5.82567749 L2.30769231,5.82567749 L2.30769231,5.82567749 Z M10.59,9.07555781 C10.59,8.17562962 9.95400002,7.57567749 9,7.57567749 L9,10.5754381 C9.95400002,10.5754381 10.59,9.97548601 10.59,9.07555781 L10.59,9.07555781 Z M13.8988999,9.09542146 C13.8988999,7.02592354 12.3318693,5.25206817 10.2947295,4.80860433 L9.82462029,6.13899585 C11.2349479,6.43463841 12.3318693,7.61720866 12.3318693,9.09542146 C12.3318693,10.5736343 11.2349479,11.7562045 9.82462029,12.0518471 L10.4514325,13.3822386 C12.3318693,12.9387748 13.8988999,11.1649194 13.8988999,9.09542146 L13.8988999,9.09542146 Z M11.3916509,2 L10.7648387,3.33039152 C13.5854938,4.06949793 15.4659306,6.43463841 15.4659306,9.09542146 C15.4659306,11.7562045 13.5854938,14.121345 10.9215417,14.7126301 L11.548354,16.0430216 C14.6824152,15.3039152 17.0329612,12.4953109 17.0329612,9.09542146 C17.0329612,5.69553201 14.6824152,2.88692768 11.3916509,2 L11.3916509,2 Z" id="tab-audio"></path>
        </g>
    </g>
</svg>