<svg width="18" height="18" viewBox="0 0 18 18" xmlns="http://www.w3.org/2000/svg"><title>unmute</title><path d="M2.308 5.826C1.038 5.826 0 6.8 0 7.992v2.167c0 1.192 1.038 2.167 2.308 2.167h1.384L8 15.576v-13l-4.308 3.25H2.308zm8.282 3.25c0-.9-.636-1.5-1.59-1.5v3c.954 0 1.59-.6 1.59-1.5zm3.309.02c0-2.07-1.567-3.844-3.604-4.287l-.47 1.33c1.41.296 2.507 1.478 2.507 2.956 0 1.479-1.097 2.661-2.507 2.957l.626 1.33c1.88-.443 3.448-2.217 3.448-4.287zM11.392 2l-.627 1.33c2.82.74 4.7 3.105 4.7 5.765 0 2.661-1.88 5.026-4.543 5.618l.626 1.33a7.126 7.126 0 0 0 5.485-6.948c0-3.4-2.35-6.208-5.641-7.095z" fill="#FFF" fill-rule="evenodd"/></svg>