<svg width="34" height="34" viewBox="0 0 34 34" xmlns="http://www.w3.org/2000/svg"><title>mover</title><path d="M5.73 14.699h8.969v-8.97h-1.992c-1.11 0-1.411-.655-.662-1.479L15.352.615c.744-.817 1.944-.823 2.693 0l3.307 3.635c.744.817.445 1.48-.662 1.48H18.7v8.969h9.03v-1.992c0-1.11.657-1.411 1.48-.662l3.636 3.307c.817.744.823 1.944 0 2.693l-3.635 3.307c-.817.744-1.48.445-1.48-.662V18.7h-9.031v9.03h2.054c1.109 0 1.411.657.662 1.48l-3.307 3.636c-.744.817-1.944.823-2.693 0l-3.307-3.635c-.744-.817-.445-1.48.662-1.48h1.929v-9.031h-8.97v2.054c0 1.109-.656 1.411-1.479.662L.615 18.108c-.817-.744-.823-1.944 0-2.693l3.635-3.307c.817-.744 1.48-.445 1.48.662v1.929z" fill="#FFF" fill-rule="evenodd" fill-opacity=".8"/></svg>