<?xml version="1.0" encoding="UTF-8" standalone="no"?>
<svg width="172px" height="130px" viewBox="0 0 172 130" version="1.1" xmlns="http://www.w3.org/2000/svg" xmlns:xlink="http://www.w3.org/1999/xlink">
    <!-- Generator: Sketch 39.1 (31720) - http://www.bohemiancoding.com/sketch -->
    <title>Combined Shape</title>
    <desc>Created with Sketch.</desc>
    <defs></defs>
    <g id="Page-2" stroke="none" stroke-width="1" fill="none" fill-rule="evenodd">
        <g id="Title-Card" transform="translate(-873.000000, -386.000000)" fill="#FFFFFF">
            <g id="Group" transform="translate(873.000000, 386.000000)">
                <path d="M0,9.99845703 C0,4.47646169 4.46826464,0 9.9908933,0 L162.009107,0 C167.526925,0 172,4.47489426 172,9.99845703 L172,120.001543 C172,125.523538 167.531735,130 162.009107,130 L9.9908933,130 C4.4730753,130 0,125.525106 0,120.001543 L0,9.99845703 L0,9.99845703 Z M10,28.0027785 C10,25.792105 11.786164,24 14.0069687,24 L157.993031,24 C160.206019,24 162,25.7898769 162,28.0027785 L162,115.997221 C162,118.207895 160.213836,120 157.993031,120 L14.0069687,120 C11.793981,120 10,118.210123 10,115.997221 L10,28.0027785 L10,28.0027785 Z M18,60.0049083 C18,57.7930585 19.7977484,56 21.9994146,56 L86.0005854,56 C88.2094011,56 90,57.799795 90,60.0049083 L90,107.995092 C90,110.206941 88.2022516,112 86.0005854,112 L21.9994146,112 C19.7905989,112 18,110.200205 18,107.995092 L18,60.0049083 L18,60.0049083 Z M42,73.0006946 C42,72.4480262 42.4028162,72.1933518 42.9045327,72.4341757 L66.0954673,83.5658243 C66.5950269,83.8056129 66.5971838,84.1933518 66.0954673,84.4341757 L42.9045327,95.5658244 C42.4049731,95.805613 42,95.5525309 42,94.9993054 L42,73.0006946 L42,73.0006946 Z" id="Combined-Shape"></path>
            </g>
        </g>
    </g>
</svg>
