<svg width="48" height="47" viewBox="0 0 48 47" xmlns="http://www.w3.org/2000/svg"><title>Page 1</title><path d="M5.143.475a3.418 3.418 0 0 1 1.715 2.954v8.733C10.803 5.894 17.763 1.714 25.717 1.714c12.31 0 22.287 9.979 22.287 22.288 0 12.31-9.978 22.288-22.287 22.288a22.212 22.212 0 0 1-15.76-6.529l4.849-4.848a15.381 15.381 0 0 0 10.91 4.52c8.523 0 15.43-6.908 15.43-15.43 0-8.523-6.907-15.43-15.43-15.43-6.055 0-11.28 3.495-13.806 8.571h8.663a3.428 3.428 0 0 1 3.43 3.43 3.428 3.428 0 0 1-3.43 3.428H3.43A3.428 3.428 0 0 1 0 20.573V3.43A3.428 3.428 0 0 1 3.429 0c.627 0 1.209.182 1.714.475z" fill="#FFF" fill-rule="evenodd" fill-opacity=".8"/></svg>