<?xml version="1.0" encoding="UTF-8" standalone="no"?>
<svg width="11px" height="11px" viewBox="0 0 11 11" version="1.1" xmlns="http://www.w3.org/2000/svg" xmlns:xlink="http://www.w3.org/1999/xlink">
    <!-- Generator: Sketch 41.2 (35397) - http://www.bohemiancoding.com/sketch -->
    <title>Page 1</title>
    <desc>Created with Sketch.</desc>
    <defs></defs>
    <g id="Symbols" stroke="none" stroke-width="1" fill="none" fill-rule="evenodd">
        <g id="Page-1" fill="#FEFEFE">
            <path d="M1.78947368,5.47921282 L1.78947368,5.18548462 L1.78947368,4.79168462 C1.78947368,4.10173077 2.31315789,3.54039231 2.95689474,3.54039231 L7.66668421,3.54039231 L7.66668421,5.21927436 L10.3508947,2.60962308 L7.66668421,2.82051283e-05 L7.66668421,1.62244359 L2.95689474,1.62244359 C1.32647368,1.62244359 0,3.04415128 0,4.79168462 L0,5.47921282 L0,7.47957692 L1.78947368,5.73982821 L1.78947368,5.47921282 Z" id="Fill-1"></path>
            <path d="M9.2105,5.21859179 L9.2105,5.47920718 L9.2105,5.77287897 L9.2105,6.16673538 C9.2105,6.85663282 8.68681579,7.41797128 8.04307895,7.41797128 L3.33328947,7.41797128 L3.33328947,5.73908923 L0.649078947,8.34874051 L3.33328947,10.9583918 L3.33328947,9.33592 L8.04307895,9.33592 C9.67355263,9.33592 10.9999737,7.91421231 10.9999737,6.16673538 L10.9999737,5.47920718 L10.9999737,3.47884308 L9.2105,5.21859179 Z" id="Fill-3"></path>
        </g>
    </g>
</svg>